<mxfile host="app.diagrams.net" agent="Mozilla/5.0 (Windows NT 10.0; Win64; x64) AppleWebKit/537.36 (KHTML, like Gecko) Chrome/136.0.0.0 Safari/537.36" version="27.0.4">
  <diagram name="Top-level Block" id="4SDK1HrlQniHVweO8_np">
    <mxGraphModel dx="1959" dy="914" grid="1" gridSize="10" guides="1" tooltips="1" connect="1" arrows="1" fold="1" page="1" pageScale="1" pageWidth="3300" pageHeight="2339" math="0" shadow="0">
      <root>
        <mxCell id="0" />
        <mxCell id="1" parent="0" />
        <mxCell id="c2Y83vC5r-HwP9IF5Wrx-1" value="Datapath" style="rounded=0;whiteSpace=wrap;html=1;" vertex="1" parent="1">
          <mxGeometry x="660" y="160" width="280" height="160" as="geometry" />
        </mxCell>
        <mxCell id="c2Y83vC5r-HwP9IF5Wrx-2" value="I-Cache" style="rounded=0;whiteSpace=wrap;html=1;" vertex="1" parent="1">
          <mxGeometry x="660" y="360" width="120" height="120" as="geometry" />
        </mxCell>
        <mxCell id="c2Y83vC5r-HwP9IF5Wrx-3" value="D-Cache" style="rounded=0;whiteSpace=wrap;html=1;" vertex="1" parent="1">
          <mxGeometry x="820" y="360" width="120" height="120" as="geometry" />
        </mxCell>
        <mxCell id="c2Y83vC5r-HwP9IF5Wrx-4" value="" style="endArrow=none;html=1;rounded=0;exitX=0.5;exitY=0;exitDx=0;exitDy=0;" edge="1" parent="1" source="c2Y83vC5r-HwP9IF5Wrx-2">
          <mxGeometry width="50" height="50" relative="1" as="geometry">
            <mxPoint x="670" y="370" as="sourcePoint" />
            <mxPoint x="720" y="320" as="targetPoint" />
          </mxGeometry>
        </mxCell>
        <mxCell id="c2Y83vC5r-HwP9IF5Wrx-5" value="" style="endArrow=none;html=1;rounded=0;exitX=0.5;exitY=0;exitDx=0;exitDy=0;" edge="1" parent="1">
          <mxGeometry width="50" height="50" relative="1" as="geometry">
            <mxPoint x="879.58" y="360" as="sourcePoint" />
            <mxPoint x="879.58" y="320" as="targetPoint" />
          </mxGeometry>
        </mxCell>
        <mxCell id="c2Y83vC5r-HwP9IF5Wrx-6" value="AXI Interconnect" style="rounded=0;whiteSpace=wrap;html=1;" vertex="1" parent="1">
          <mxGeometry x="560" y="520" width="640" height="80" as="geometry" />
        </mxCell>
        <mxCell id="c2Y83vC5r-HwP9IF5Wrx-7" value="" style="endArrow=none;html=1;rounded=0;exitX=0.5;exitY=0;exitDx=0;exitDy=0;" edge="1" parent="1">
          <mxGeometry width="50" height="50" relative="1" as="geometry">
            <mxPoint x="719.58" y="520" as="sourcePoint" />
            <mxPoint x="719.58" y="480" as="targetPoint" />
          </mxGeometry>
        </mxCell>
        <mxCell id="c2Y83vC5r-HwP9IF5Wrx-8" value="" style="endArrow=none;html=1;rounded=0;exitX=0.5;exitY=0;exitDx=0;exitDy=0;" edge="1" parent="1">
          <mxGeometry width="50" height="50" relative="1" as="geometry">
            <mxPoint x="879.58" y="520" as="sourcePoint" />
            <mxPoint x="879.58" y="480" as="targetPoint" />
          </mxGeometry>
        </mxCell>
        <mxCell id="c2Y83vC5r-HwP9IF5Wrx-9" value="Controller" style="text;html=1;align=center;verticalAlign=middle;whiteSpace=wrap;rounded=0;" vertex="1" parent="1">
          <mxGeometry x="670" y="520" width="60" height="30" as="geometry" />
        </mxCell>
        <mxCell id="c2Y83vC5r-HwP9IF5Wrx-10" value="Controller" style="text;html=1;align=center;verticalAlign=middle;whiteSpace=wrap;rounded=0;" vertex="1" parent="1">
          <mxGeometry x="850" y="520" width="60" height="30" as="geometry" />
        </mxCell>
        <mxCell id="c2Y83vC5r-HwP9IF5Wrx-11" value="Satellite" style="text;html=1;align=center;verticalAlign=middle;whiteSpace=wrap;rounded=0;" vertex="1" parent="1">
          <mxGeometry x="590" y="570" width="60" height="30" as="geometry" />
        </mxCell>
        <mxCell id="c2Y83vC5r-HwP9IF5Wrx-12" value="Satellite" style="text;html=1;align=center;verticalAlign=middle;whiteSpace=wrap;rounded=0;" vertex="1" parent="1">
          <mxGeometry x="750" y="570" width="60" height="30" as="geometry" />
        </mxCell>
        <mxCell id="c2Y83vC5r-HwP9IF5Wrx-13" value="Satellite" style="text;html=1;align=center;verticalAlign=middle;whiteSpace=wrap;rounded=0;" vertex="1" parent="1">
          <mxGeometry x="1010" y="570" width="60" height="30" as="geometry" />
        </mxCell>
        <mxCell id="c2Y83vC5r-HwP9IF5Wrx-14" value="AXI to AHB-Lite" style="rounded=0;whiteSpace=wrap;html=1;" vertex="1" parent="1">
          <mxGeometry x="880" y="640" width="320" height="80" as="geometry" />
        </mxCell>
        <mxCell id="c2Y83vC5r-HwP9IF5Wrx-16" value="DRAM Controller" style="rounded=0;whiteSpace=wrap;html=1;" vertex="1" parent="1">
          <mxGeometry x="720" y="640" width="120" height="80" as="geometry" />
        </mxCell>
        <mxCell id="c2Y83vC5r-HwP9IF5Wrx-17" value="Flash Controller" style="rounded=0;whiteSpace=wrap;html=1;" vertex="1" parent="1">
          <mxGeometry x="560" y="640" width="120" height="80" as="geometry" />
        </mxCell>
        <mxCell id="c2Y83vC5r-HwP9IF5Wrx-20" value="" style="endArrow=none;html=1;rounded=0;exitX=0.5;exitY=0;exitDx=0;exitDy=0;" edge="1" parent="1">
          <mxGeometry width="50" height="50" relative="1" as="geometry">
            <mxPoint x="779.6600000000001" y="640" as="sourcePoint" />
            <mxPoint x="779.6600000000001" y="600" as="targetPoint" />
          </mxGeometry>
        </mxCell>
        <mxCell id="c2Y83vC5r-HwP9IF5Wrx-21" value="2 Gbit External DDR3" style="rounded=0;whiteSpace=wrap;html=1;" vertex="1" parent="1">
          <mxGeometry x="720" y="760" width="120" height="80" as="geometry" />
        </mxCell>
        <mxCell id="c2Y83vC5r-HwP9IF5Wrx-22" value="128 Mbit External Flash" style="rounded=0;whiteSpace=wrap;html=1;" vertex="1" parent="1">
          <mxGeometry x="560" y="760" width="120" height="80" as="geometry" />
        </mxCell>
        <mxCell id="c2Y83vC5r-HwP9IF5Wrx-23" value="" style="endArrow=none;html=1;rounded=0;exitX=0.5;exitY=0;exitDx=0;exitDy=0;" edge="1" parent="1">
          <mxGeometry width="50" height="50" relative="1" as="geometry">
            <mxPoint x="619.6600000000001" y="760" as="sourcePoint" />
            <mxPoint x="619.6600000000001" y="720" as="targetPoint" />
          </mxGeometry>
        </mxCell>
        <mxCell id="c2Y83vC5r-HwP9IF5Wrx-24" value="" style="endArrow=none;html=1;rounded=0;exitX=0.5;exitY=0;exitDx=0;exitDy=0;" edge="1" parent="1">
          <mxGeometry width="50" height="50" relative="1" as="geometry">
            <mxPoint x="779.6600000000001" y="760" as="sourcePoint" />
            <mxPoint x="779.6600000000001" y="720" as="targetPoint" />
          </mxGeometry>
        </mxCell>
        <mxCell id="c2Y83vC5r-HwP9IF5Wrx-25" value="UART" style="rounded=0;whiteSpace=wrap;html=1;" vertex="1" parent="1">
          <mxGeometry x="880" y="760" width="80" height="80" as="geometry" />
        </mxCell>
        <mxCell id="c2Y83vC5r-HwP9IF5Wrx-26" value="GPS" style="rounded=0;whiteSpace=wrap;html=1;" vertex="1" parent="1">
          <mxGeometry x="1120" y="760" width="80" height="80" as="geometry" />
        </mxCell>
        <mxCell id="c2Y83vC5r-HwP9IF5Wrx-27" value="SPI" style="rounded=0;whiteSpace=wrap;html=1;" vertex="1" parent="1">
          <mxGeometry x="1000" y="760" width="80" height="80" as="geometry" />
        </mxCell>
        <mxCell id="c2Y83vC5r-HwP9IF5Wrx-32" value="" style="endArrow=none;html=1;rounded=0;entryX=0.5;entryY=0;entryDx=0;entryDy=0;exitX=0.5;exitY=0;exitDx=0;exitDy=0;" edge="1" parent="1" source="c2Y83vC5r-HwP9IF5Wrx-25" target="c2Y83vC5r-HwP9IF5Wrx-27">
          <mxGeometry width="50" height="50" relative="1" as="geometry">
            <mxPoint x="940" y="740" as="sourcePoint" />
            <mxPoint x="990" y="690" as="targetPoint" />
            <Array as="points">
              <mxPoint x="920" y="740" />
              <mxPoint x="1040" y="740" />
            </Array>
          </mxGeometry>
        </mxCell>
        <mxCell id="c2Y83vC5r-HwP9IF5Wrx-33" value="" style="endArrow=none;html=1;rounded=0;entryX=0.5;entryY=0;entryDx=0;entryDy=0;" edge="1" parent="1">
          <mxGeometry width="50" height="50" relative="1" as="geometry">
            <mxPoint x="1040" y="740" as="sourcePoint" />
            <mxPoint x="1160" y="760" as="targetPoint" />
            <Array as="points">
              <mxPoint x="1160" y="740" />
            </Array>
          </mxGeometry>
        </mxCell>
        <mxCell id="c2Y83vC5r-HwP9IF5Wrx-34" value="" style="endArrow=none;html=1;rounded=0;exitX=0.5;exitY=0;exitDx=0;exitDy=0;" edge="1" parent="1">
          <mxGeometry width="50" height="50" relative="1" as="geometry">
            <mxPoint x="619.58" y="640" as="sourcePoint" />
            <mxPoint x="619.58" y="600" as="targetPoint" />
          </mxGeometry>
        </mxCell>
        <mxCell id="c2Y83vC5r-HwP9IF5Wrx-35" value="" style="endArrow=none;html=1;rounded=0;exitX=0.5;exitY=0;exitDx=0;exitDy=0;" edge="1" parent="1">
          <mxGeometry width="50" height="50" relative="1" as="geometry">
            <mxPoint x="1039.5" y="640" as="sourcePoint" />
            <mxPoint x="1039.5" y="600" as="targetPoint" />
          </mxGeometry>
        </mxCell>
        <mxCell id="c2Y83vC5r-HwP9IF5Wrx-36" value="" style="endArrow=none;html=1;rounded=0;entryX=0.5;entryY=1;entryDx=0;entryDy=0;" edge="1" parent="1" target="c2Y83vC5r-HwP9IF5Wrx-14">
          <mxGeometry width="50" height="50" relative="1" as="geometry">
            <mxPoint x="1040" y="740" as="sourcePoint" />
            <mxPoint x="1090" y="690" as="targetPoint" />
          </mxGeometry>
        </mxCell>
        <mxCell id="c2Y83vC5r-HwP9IF5Wrx-37" value="GPS iDMA" style="rounded=0;whiteSpace=wrap;html=1;" vertex="1" parent="1">
          <mxGeometry x="980" y="360" width="120" height="120" as="geometry" />
        </mxCell>
        <mxCell id="c2Y83vC5r-HwP9IF5Wrx-38" value="" style="endArrow=none;html=1;rounded=0;exitX=0.5;exitY=0;exitDx=0;exitDy=0;" edge="1" parent="1">
          <mxGeometry width="50" height="50" relative="1" as="geometry">
            <mxPoint x="1039.66" y="520" as="sourcePoint" />
            <mxPoint x="1039.66" y="480" as="targetPoint" />
          </mxGeometry>
        </mxCell>
        <mxCell id="c2Y83vC5r-HwP9IF5Wrx-39" value="Controller" style="text;html=1;align=center;verticalAlign=middle;whiteSpace=wrap;rounded=0;" vertex="1" parent="1">
          <mxGeometry x="1010" y="520" width="60" height="30" as="geometry" />
        </mxCell>
        <mxCell id="c2Y83vC5r-HwP9IF5Wrx-40" value="Fetch Stage" style="text;html=1;align=center;verticalAlign=middle;whiteSpace=wrap;rounded=0;" vertex="1" parent="1">
          <mxGeometry x="680" y="290" width="80" height="30" as="geometry" />
        </mxCell>
        <mxCell id="c2Y83vC5r-HwP9IF5Wrx-41" value="Memory Stage" style="text;html=1;align=center;verticalAlign=middle;whiteSpace=wrap;rounded=0;" vertex="1" parent="1">
          <mxGeometry x="835" y="290" width="90" height="30" as="geometry" />
        </mxCell>
      </root>
    </mxGraphModel>
  </diagram>
</mxfile>
